<svg fill="#A2A2A2" xmlns="http://www.w3.org/2000/svg" data-name="Layer 1" viewBox="0 0 1024 1024" x="0px" y="0px"><title>icon</title><path fill="#A2A2A2" d="M102.4 0h819.2c56.553472 0 102.4 45.846528 102.4 102.4v819.2c0 56.553472-45.846528 102.4-102.4 102.4H102.4C45.846528 1024 0 978.153472 0 921.6V102.4C0 45.846528 45.846528 0 102.4 0z m371.2 473.6H281.6c-21.20704 0-38.4 17.19296-38.4 38.4s17.19296 38.4 38.4 38.4h192V742.4c0 21.20704 17.19296 38.4 38.4 38.4s38.4-17.19296 38.4-38.4V550.4H742.4c21.20704 0 38.4-17.19296 38.4-38.4s-17.19296-38.4-38.4-38.4H550.4V281.6c0-21.20704-17.19296-38.4-38.4-38.4s-38.4 17.19296-38.4 38.4v192z"></path></svg>