<svg xmlns="http://www.w3.org/2000/svg" xmlns:xlink="http://www.w3.org/1999/xlink" width="100" height="100" viewBox="0 0 100 100"><g><g transform="translate(50 50) scale(0.69 0.69) rotate(0) translate(-50 -50)" style="fill:#34C8FF"><svg fill="#34C8FF" xmlns="http://www.w3.org/2000/svg" xmlns:xlink="http://www.w3.org/1999/xlink" version="1.1" x="0px" y="0px" viewBox="0 0 48 48" enable-background="new 0 0 48 48" xml:space="preserve"><g><path d="M29.5,32.7c5.9-3.7,9.9-12.6,9.9-18.5C39.4,6.4,32.5,0,24,0C15.5,0,8.6,6.4,8.6,14.2c0,5.9,4,14.8,9.9,18.5   c0.3,0.2,0.5,0.5,0.6,0.8c0.1,0.3,0,0.6-0.2,0.8c-0.7,1-0.8,2.1-0.2,3.2c0.6,1.1,1.8,1.8,3.1,1.8h0.6c-0.4,1.4-0.1,3,1,4.1   c0.4,0.4,0.6,0.9,0.6,1.5c0,0.6-0.2,1.1-0.6,1.5c-0.4,0.4-0.4,1,0,1.4c0.2,0.2,0.5,0.3,0.7,0.3c0.3,0,0.5-0.1,0.7-0.3   c0.8-0.8,1.2-1.8,1.2-2.9s-0.4-2.1-1.2-2.9c-0.7-0.7-0.8-1.8-0.2-2.7h1.8c1.3,0,2.5-0.7,3.1-1.8c0.5-1,0.4-2.2-0.2-3.2   c-0.2-0.2-0.2-0.5-0.2-0.8C29,33.2,29.2,32.9,29.5,32.7z M28.5,31c-0.8,0.5-1.3,1.2-1.5,2.1c-0.2,0.8,0,1.7,0.5,2.4   c0.3,0.5,0.2,0.9,0.1,1.1c-0.2,0.4-0.6,0.7-1.3,0.7h-4.5c-0.7,0-1.1-0.4-1.3-0.7c-0.1-0.2-0.2-0.6,0.1-1.1c0.5-0.7,0.7-1.5,0.5-2.4   c-0.2-0.9-0.7-1.6-1.5-2.1c-5.3-3.3-9-11.5-9-16.8C10.6,7.5,16.6,2,24,2c7.4,0,13.4,5.5,13.4,12.2C37.4,19.5,33.7,27.7,28.5,31z"></path><path d="M22.7,6c-4.2,0-7.6,3.2-7.6,7c0,0.6,0.4,1,1,1c0.6,0,1-0.4,1-1c0-2.8,2.5-5,5.6-5c0.6,0,1-0.4,1-1C23.7,6.4,23.2,6,22.7,6z   "></path></g></svg></g></g></svg>