<svg xmlns="http://www.w3.org/2000/svg" xmlns:xlink="http://www.w3.org/1999/xlink" width="100" height="100" viewBox="0 0 100 100"><g><g transform="translate(50 50) scale(0.69 0.69) rotate(0) translate(-50 -50)" style="fill:#34C8FF"><svg fill="#34C8FF" xmlns="http://www.w3.org/2000/svg" xmlns:xlink="http://www.w3.org/1999/xlink" xml:space="preserve" version="1.1" style="shape-rendering:geometricPrecision;text-rendering:geometricPrecision;image-rendering:optimizeQuality;" viewBox="0 0 1000 1000" x="0px" y="0px" fill-rule="evenodd" clip-rule="evenodd"><defs><style type="text/css">
   
    .fil0 {fill:#34C8FF}
   
  </style></defs><g><path class="fil0" d="M533 34c310,0 332,465 23,651l1 1 23 38 -29 0c8,9 14,18 17,27 4,17 -1,33 -23,54 -31,29 -20,42 -9,55 17,22 35,44 -11,93 -2,2 -12,9 -22,16 -11,8 -24,16 -26,17 -6,1 -11,-2 -13,-7 -1,-5 2,-11 8,-12 0,0 10,-7 20,-15 9,-6 17,-12 18,-13 35,-36 22,-51 10,-66 -17,-21 -33,-41 11,-83 16,-14 20,-24 17,-34 -2,-9 -12,-19 -25,-32l-37 0 24 -38c-330,-178 -287,-652 23,-652zm-191 245c-1,6 -5,10 -11,10 -5,-1 -10,-5 -9,-11 1,-42 9,-82 26,-116 17,-35 43,-63 83,-81 5,-2 11,0 13,5 3,5 0,11 -5,13 -35,16 -58,41 -74,72 -15,31 -22,68 -23,108z"></path></g></svg></g></g></svg>