<svg fill="#FFFFFF" xmlns="http://www.w3.org/2000/svg" xmlns:xlink="http://www.w3.org/1999/xlink" version="1.1" x="0px" y="0px" viewBox="0 0 64 64" style="enable-background:new 0 0 64 64;" xml:space="preserve"><style type="text/css">
	.st0{display:none;}
	.st1{display:inline;}
	.st2{fill:none;stroke:#FFFFFF;stroke-width:0.1;stroke-miterlimit:10;}
</style><g class="st0"><g class="st1"><rect x="2" y="2" class="st2" width="60" height="60"></rect><line class="st2" x1="32" y1="2" x2="32" y2="62"></line><line class="st2" x1="62" y1="32" x2="2" y2="32"></line><line class="st2" x1="2" y1="2" x2="62" y2="62"></line><rect x="10" y="10" class="st2" width="44" height="44"></rect><line class="st2" x1="62" y1="2" x2="2" y2="62"></line><line class="st2" x1="2" y1="32" x2="32" y2="2"></line><line class="st2" x1="32" y1="2" x2="62" y2="32"></line><line class="st2" x1="62" y1="32" x2="32" y2="62"></line><line class="st2" x1="32" y1="62" x2="2" y2="32"></line><circle class="st2" cx="32" cy="32" r="21"></circle></g></g><path d="M28,55.5l3.1-4.1L26,50.6v-9.2l5.1-0.7L28,36.5l6.5-6.5l4.1,3.1l0.7-5.1H46V14.8c0-0.8-0.3-1.6-0.9-2.1l-7.8-9.8  C36.7,2.3,36,2,35.2,2H7C5.3,2,4,3.3,4,5v50c0,1.7,1.3,3,3,3h23.5L28,55.5z M34,6h2v7c0,0.6,0.4,1,1,1h5v2h-5c-1.7,0-3-1.3-3-3V6z   M14,8h-2v1.2c0,0.7-0.2,1.3-0.6,1.8c0.4,0.5,0.6,1.2,0.6,1.8V14h2v2h-2c-1.1,0-2-0.9-2-2v-1.2c0-0.3-0.1-0.5-0.3-0.7L9.6,12H8v-2  h1.6l0.1-0.1C9.9,9.7,10,9.4,10,9.2V8c0-1.1,0.9-2,2-2h2V8z M22,12h-1.6l-0.1,0.1c-0.2,0.2-0.3,0.4-0.3,0.7V14c0,1.1-0.9,2-2,2h-2  v-2h2v-1.2c0-0.7,0.2-1.3,0.6-1.8C18.2,10.5,18,9.8,18,9.2V8h-2V6h2c1.1,0,2,0.9,2,2v1.2c0,0.3,0.1,0.5,0.3,0.7l0.1,0.1H22V12z"></path><path d="M60,48.9v-5.7l-5.6-0.8c-0.1-0.4-0.3-0.7-0.4-1.1l3.4-4.6l-4.1-4.1L48.7,36c-0.3-0.2-0.7-0.3-1.1-0.4L46.9,30h-5.7l-0.8,5.6  c-0.4,0.1-0.7,0.3-1.1,0.4l-4.6-3.4l-4.1,4.1l3.4,4.6c-0.2,0.3-0.3,0.7-0.4,1.1L28,43.1v5.7l5.6,0.8c0.1,0.4,0.3,0.7,0.4,1.1  l-3.4,4.6l4.1,4.1l4.6-3.4c0.3,0.2,0.7,0.3,1.1,0.4l0.8,5.6h5.7l0.8-5.6c0.4-0.1,0.7-0.3,1.1-0.4l4.6,3.4l4.1-4.1l-3.4-4.6  c0.2-0.3,0.3-0.7,0.4-1.1L60,48.9z M44,49c-1.7,0-3-1.3-3-3s1.3-3,3-3s3,1.3,3,3S45.7,49,44,49z"></path></svg>